Coordinates
version=1
nRows=13
nColumns=34
inDegrees=yes

Units are S.I. units (second, meters, Newtons, ...)
If the header above contains a line with 'inDegrees', this indicates whether rotational values are in degrees (yes) or radians (no).

endheader
time	pelvis_tilt	pelvis_list	pelvis_rotation	pelvis_tx	pelvis_ty	pelvis_tz	hip_flexion_r	hip_adduction_r	hip_rotation_r	knee_angle_r	ankle_angle_r	subtalar_angle_r	mtp_angle_r	hip_flexion_l	hip_adduction_l	hip_rotation_l	knee_angle_l	ankle_angle_l	subtalar_angle_l	mtp_angle_l	lumbar_extension	lumbar_bending	lumbar_rotation	arm_flex_r	arm_add_r	arm_rot_r	elbow_flex_r	pro_sup_r	arm_flex_l	arm_add_l	arm_rot_l	elbow_flex_l	pro_sup_l
      3.95000000	    -11.97761887	      3.62714131	     -0.56059177	     -0.53849730	      0.55514186	     -0.66503218	     95.19415463	      7.48834702	      5.84852847	     41.30615741	      7.60388174	    -12.60474690	      0.00000000	     99.82983077	      4.97019915	     -3.89412214	     50.39364098	      2.09418995	     -1.60505934	      0.00000000	    -47.79328448	      6.17370976	     12.75914333	     73.49318355	    -14.48686738	     -5.87619322	     30.77381730	     78.63608804	    144.50912126	     16.54925045	     45.98520574	     28.16149999	     55.80814201
      3.96666670	    -13.93728495	      4.25254295	     -1.84723096	     -0.51325919	      0.54948924	     -0.66983108	     97.60636896	      8.49572750	      4.97280875	     42.24385012	      9.48122102	     -9.45124097	      0.00000000	    102.30676597	      4.00506169	     -3.26521717	     51.92379987	      4.17963468	     -1.95263016	      0.00000000	    -44.45996466	      5.16203155	     13.61027279	     66.45466458	    -15.72540766	     -7.94257205	     34.84201885	     79.32962614	    140.27864079	     18.53585796	     42.12099854	     30.38389917	     54.53833461
      3.98333330	    -15.45914703	      4.76906394	     -2.62390759	     -0.50796503	      0.55183328	     -0.67219783	     98.48739717	      8.48896863	      3.75113142	     41.42125020	     10.98598448	     -4.72435206	      0.00000000	    103.77229849	      3.39900375	     -3.42207962	     53.02996869	      6.61408686	     -2.77065644	      0.00000000	    -41.65679120	      4.53612151	     14.55699620	     59.73284246	    -16.79345874	    -11.39443830	     38.28384041	     80.49393586	    135.71045515	     21.14868035	     36.37622114	     33.24720537	     54.15510695
      4.00000000	    -17.79731021	      5.27548815	     -2.59269130	     -0.49074192	      0.55148262	     -0.67788357	    100.75581931	      7.65899886	      2.43149895	     42.43479447	     13.69617199	     -0.52680821	      0.00000000	    106.02057699	      3.96046020	     -3.69490364	     54.59323599	      8.81259858	     -4.19376550	      0.00000000	    -37.35907858	      4.94425483	     16.43396733	     50.58790614	    -19.05293275	    -14.19067930	     42.83571757	     81.27128595	    128.72480290	     23.78590871	     32.66699472	     38.00682434	     54.87403277
      4.01666670	    -20.60302419	      5.70981327	     -0.55236742	     -0.47237040	      0.55058268	     -0.68251764	    103.61830895	      4.90089804	      1.36993323	     43.82606787	     14.25307265	      6.57373943	      0.00000000	    108.55877773	      5.83170652	     -5.82934091	     55.34455933	     10.70530765	     -2.58398462	      0.00000000	    -32.49203182	      6.06565959	     17.49466580	     40.06167115	    -20.40066424	    -19.83895161	     47.78678880	     81.82203339	    121.05960861	     27.56931144	     27.96418906	     43.72268777	     56.54213106
      4.03333330	    -21.23810681	      6.10191036	      1.92762047	     -0.47028333	      0.55150673	     -0.68397025	    104.60719516	      1.30717331	      2.07768615	     44.49498833	     10.37476285	      5.80412866	      0.00000000	    108.54781412	      8.17586973	     -7.79137442	     54.30280078	      9.83692457	     -4.25062587	      0.00000000	    -30.26932451	      7.60497936	     17.02606874	     32.02084834	    -19.90020100	    -24.50519599	     51.89033224	     82.89301058	    115.52634662	     29.79229096	     25.14080371	     47.34198832	     59.29256044
      4.05000000	    -21.65132799	      6.05574262	      3.44553685	     -0.47015020	      0.55148383	     -0.68772587	    105.08221971	     -1.12655597	      1.32081117	     45.31371167	      9.20041526	      5.15816918	      0.00000000	    108.69408472	      9.94892641	     -8.28208177	     53.26762688	      8.25350998	     -7.06809038	      0.00000000	    -28.18217174	      9.18662103	     15.73369230	     26.81018690	    -18.97878635	    -25.88811336	     53.48021076	     84.49026692	    110.82444083	     30.08962283	     24.48821716	     49.84905201	     62.72625324
      4.06666670	    -21.50933219	      6.10373904	      4.03129889	     -0.49319369	      0.55275445	     -0.67607780	    104.99987317	     -1.77629681	      0.56994262	     45.14654373	      8.05377500	      4.46669843	      0.00000000	    108.00882701	      9.81896818	     -8.32363175	     51.35530807	      6.35174535	     -8.06185939	      0.00000000	    -27.57065171	      9.45590330	     13.76953986	     25.42570290	    -17.41708094	    -24.14204066	     52.89659850	     88.63155803	    110.11194337	     28.62134644	     25.48473174	     48.40307653	     70.83425396
      4.08333330	    -19.92334272	      6.09889759	      3.51343575	     -0.51596744	      0.55290447	     -0.67050208	    103.04167221	     -0.57904621	      0.15320014	     43.50382321	      7.38505122	      4.13681587	      0.00000000	    105.58105075	      8.99513490	     -8.21221411	     47.80512233	      4.03174206	     -9.13025212	      0.00000000	    -29.10241684	      9.05532620	     12.59609011	     25.66381309	    -16.17689593	    -22.34866484	     53.16625925	     89.35081856	    110.67617994	     27.16791992	     25.78043371	     46.97291943	     72.01319831
      4.10000000	    -17.69303490	      5.73742286	      2.20400764	     -0.53329015	      0.55677102	     -0.66249156	     99.97390537	      1.31195876	     -1.18978773	     40.83727805	      7.41624383	      5.58176401	      0.00000000	    102.70977469	      7.24997197	     -7.41686872	     45.00666903	      2.77174145	     -8.52204571	      0.00000000	    -31.62148415	      8.37183178	     11.50099741	     27.03962774	    -15.06328681	    -19.33314122	     52.28640870	     90.21336766	    112.72291653	     25.17467453	     28.02150817	     44.26013913	     73.01719567
      4.11666670	    -14.90362469	      4.99337695	      1.47914006	     -0.53753243	      0.56019307	     -0.65836023	     96.50858192	      2.74518454	     -2.37617713	     38.42113758	      6.59129662	      9.46777882	      0.00000000	     99.81316987	      6.11596015	     -7.16932282	     43.72058273	      1.49991267	     -8.03424214	      0.00000000	    -34.32706846	      8.38334682	      9.95577476	     27.45305580	    -14.06414544	    -16.93376352	     51.30130954	     91.09338379	    113.81968157	     23.38847030	     30.98100676	     42.52106228	     73.77254706
      4.13333330	    -12.89999014	      4.57252734	      0.73595060	     -0.53713414	      0.56740450	     -0.66171071	     93.62302823	      3.56225978	     -2.96144799	     36.57899927	      6.32507187	     11.76500313	      0.00000000	     97.11516284	      5.73937904	     -6.84794442	     42.48279947	      1.13696126	     -8.42170412	      0.00000000	    -35.46632477	      8.65219328	      8.53599726	     26.91434296	    -13.34751815	    -15.64843725	     49.38672989	     92.03866048	    112.63555768	     21.58822709	     33.57824689	     42.57755071	     74.23510434
      4.15000000	    -10.25661882	      4.20203510	     -0.26797946	     -0.54945396	      0.57948058	     -0.65405820	     89.48423818	      4.33174766	     -3.20747212	     33.84659812	      6.79375716	     13.43273419	      0.00000000	     93.40945746	      5.03658156	     -6.48786903	     41.31585437	      1.38233439	     -6.35941216	      0.00000000	    -37.57565790	      8.53320018	      8.09131797	     25.65943782	    -13.01831245	    -15.42331052	     48.43083680	     92.30828710	    110.95562380	     20.59340726	     34.80663555	     42.90811536	     74.40588910
